<svg version="1.1" viewBox="0.0 0.0 250.3018372703412 256.4698162729659" fill="none" stroke="none" stroke-linecap="square" stroke-miterlimit="10" xmlns:xlink="http://www.w3.org/1999/xlink" xmlns="http://www.w3.org/2000/svg"><clipPath id="p.0"><path d="m0 0l250.30183 0l0 256.46982l-250.30183 0l0 -256.46982z" clip-rule="nonzero"/></clipPath><g clip-path="url(#p.0)"><path fill="#000000" fill-opacity="0.0" d="m0 0l250.30183 0l0 256.46982l-250.30183 0z" fill-rule="evenodd"/><path fill="#000000" d="m21.652485 255.15486l205.44063 0l21.65355 -21.65355l0 -21.65355l0 0l-248.74771 0l0 0l0 21.65355z" fill-rule="evenodd"/><path stroke="#000000" stroke-width="1.0" stroke-linejoin="round" stroke-linecap="butt" d="m21.652485 255.15486l205.44063 0l21.65355 -21.65355l0 -21.65355l0 0l-248.74771 0l0 0l0 21.65355z" fill-rule="evenodd"/><path fill="#000000" d="m45.825714 199.15486l157.09418 0l45.826767 -45.826782l0 -45.826767l0 0l-248.74771 0l0 0l0 45.826767z" fill-rule="evenodd"/><path stroke="#000000" stroke-width="1.0" stroke-linejoin="round" stroke-linecap="butt" d="m45.825714 199.15486l157.09418 0l45.826767 -45.826782l0 -45.826767l0 0l-248.74771 0l0 0l0 45.826767z" fill-rule="evenodd"/><path fill="#ffffff" d="m34.443882 167.95801l180.32756 0l26.236221 -26.236221l0 -26.236221l0 0l-232.8 0l0 0l0 26.236221z" fill-rule="evenodd"/><path stroke="#000000" stroke-width="1.0" stroke-linejoin="round" stroke-linecap="butt" d="m34.443882 167.95801l180.32756 0l26.236221 -26.236221l0 -26.236221l0 0l-232.8 0l0 0l0 26.236221z" fill-rule="evenodd"/><path fill="#000000" d="m52.573074 0l144.01189 0l52.4252 52.425198l0 52.425198l0 0l-248.86229 0l0 0l0 -52.425198z" fill-rule="evenodd"/><path stroke="#000000" stroke-width="1.0" stroke-linejoin="round" stroke-linecap="butt" d="m52.573074 0l144.01189 0l52.4252 52.425198l0 52.425198l0 0l-248.86229 0l0 0l0 -52.425198z" fill-rule="evenodd"/><path fill="#ffffff" d="m26.538372 36.27559l96.05292 0l0 27.559055l-96.05292 0z" fill-rule="evenodd"/><path stroke="#000000" stroke-width="1.0" stroke-linejoin="round" stroke-linecap="butt" d="m26.538372 36.27559l96.05292 0l0 27.559055l-96.05292 0z" fill-rule="evenodd"/><path fill="#ffffff" d="m126.19441 36.27559l95.113464 0l0 27.559055l-95.113464 0z" fill-rule="evenodd"/><path stroke="#000000" stroke-width="1.0" stroke-linejoin="round" stroke-linecap="butt" d="m126.19441 36.27559l95.113464 0l0 27.559055l-95.113464 0z" fill-rule="evenodd"/><path fill="#000000" d="m23.184395 129.86876l202.84653 0l23.007874 -23.007866l0 -23.007874l0 0l-248.86229 0l0 0l0 23.007874z" fill-rule="evenodd"/><path stroke="#000000" stroke-width="1.0" stroke-linejoin="round" stroke-linecap="butt" d="m23.184395 129.86876l202.84653 0l23.007874 -23.007866l0 -23.007874l0 0l-248.86229 0l0 0l0 23.007874z" fill-rule="evenodd"/><path fill="#ffffff" d="m102.91441 104.07087l0 0c0 -7.6102295 4.488167 -13.779533 10.024605 -13.779533l0 0c2.6586914 0 5.2084885 1.451767 7.0884705 4.0359344c1.8799744 2.5841599 2.936142 6.089035 2.936142 9.743599l0 0c0 7.610222 -4.4881744 13.779526 -10.024612 13.779526l0 0c-5.536438 0 -10.024605 -6.169304 -10.024605 -13.779526z" fill-rule="evenodd"/><path stroke="#000000" stroke-width="1.0" stroke-linejoin="round" stroke-linecap="butt" d="m102.91441 104.07087l0 0c0 -7.6102295 4.488167 -13.779533 10.024605 -13.779533l0 0c2.6586914 0 5.2084885 1.451767 7.0884705 4.0359344c1.8799744 2.5841599 2.936142 6.089035 2.936142 9.743599l0 0c0 7.610222 -4.4881744 13.779526 -10.024612 13.779526l0 0c-5.536438 0 -10.024605 -6.169304 -10.024605 -13.779526z" fill-rule="evenodd"/><path fill="#ffffff" d="m126.19441 104.07087l0 0c0 -7.6102295 4.4881744 -13.779533 10.024612 -13.779533l0 0c2.6586914 0 5.208481 1.451767 7.0884705 4.0359344c1.8799744 2.5841599 2.9361267 6.089035 2.9361267 9.743599l0 0c0 7.610222 -4.488159 13.779526 -10.024597 13.779526l0 0c-5.536438 0 -10.024612 -6.169304 -10.024612 -13.779526z" fill-rule="evenodd"/><path stroke="#000000" stroke-width="1.0" stroke-linejoin="round" stroke-linecap="butt" d="m126.19441 104.07087l0 0c0 -7.6102295 4.4881744 -13.779533 10.024612 -13.779533l0 0c2.6586914 0 5.208481 1.451767 7.0884705 4.0359344c1.8799744 2.5841599 2.9361267 6.089035 2.9361267 9.743599l0 0c0 7.610222 -4.488159 13.779526 -10.024597 13.779526l0 0c-5.536438 0 -10.024612 -6.169304 -10.024612 -13.779526z" fill-rule="evenodd"/><path fill="#000000" d="m26.538372 148.7874l0 0c0 -7.610214 4.4881687 -13.779526 10.024605 -13.779526l0 0c2.6586914 0 5.2084885 1.451767 7.0884666 4.0359344c1.8799782 2.5841522 2.936142 6.089035 2.936142 9.743591l0 0c0 7.6102295 -4.4881706 13.779526 -10.024609 13.779526l0 0c-5.536436 0 -10.024605 -6.1692963 -10.024605 -13.779526z" fill-rule="evenodd"/><path stroke="#000000" stroke-width="1.0" stroke-linejoin="round" stroke-linecap="butt" d="m26.538372 148.7874l0 0c0 -7.610214 4.4881687 -13.779526 10.024605 -13.779526l0 0c2.6586914 0 5.2084885 1.451767 7.0884666 4.0359344c1.8799782 2.5841522 2.936142 6.089035 2.936142 9.743591l0 0c0 7.6102295 -4.4881706 13.779526 -10.024609 13.779526l0 0c-5.536436 0 -10.024605 -6.1692963 -10.024605 -13.779526z" fill-rule="evenodd"/><path fill="#000000" d="m199.0609 148.7874l0 0c0 -7.610214 4.488159 -13.779526 10.024597 -13.779526l0 0c2.6586914 0 5.208496 1.451767 7.0884705 4.0359344c1.8799744 2.5841522 2.936142 6.089035 2.936142 9.743591l0 0c0 7.6102295 -4.4881744 13.779526 -10.024612 13.779526l0 0c-5.536438 0 -10.024597 -6.1692963 -10.024597 -13.779526z" fill-rule="evenodd"/><path stroke="#000000" stroke-width="1.0" stroke-linejoin="round" stroke-linecap="butt" d="m199.0609 148.7874l0 0c0 -7.610214 4.488159 -13.779526 10.024597 -13.779526l0 0c2.6586914 0 5.208496 1.451767 7.0884705 4.0359344c1.8799744 2.5841522 2.936142 6.089035 2.936142 9.743591l0 0c0 7.6102295 -4.4881744 13.779526 -10.024612 13.779526l0 0c-5.536438 0 -10.024597 -6.1692963 -10.024597 -13.779526z" fill-rule="evenodd"/><path fill="#ffffff" d="m112.46357 190.86963l0 0c0 -2.2357025 1.8124008 -4.048111 4.048111 -4.048111l16.191963 0l0 0c1.0736237 0 2.1032867 0.4264984 2.862442 1.185669c0.75917053 0.75917053 1.185669 1.7888184 1.185669 2.862442l0 22.014023c0 2.2357025 -1.8123932 4.048111 -4.048111 4.048111l-16.191963 0c-2.2357101 0 -4.048111 -1.8124084 -4.048111 -4.048111z" fill-rule="evenodd"/><path stroke="#ffffff" stroke-width="1.0" stroke-linejoin="round" stroke-linecap="butt" d="m112.46357 190.86963l0 0c0 -2.2357025 1.8124008 -4.048111 4.048111 -4.048111l16.191963 0l0 0c1.0736237 0 2.1032867 0.4264984 2.862442 1.185669c0.75917053 0.75917053 1.185669 1.7888184 1.185669 2.862442l0 22.014023c0 2.2357025 -1.8123932 4.048111 -4.048111 4.048111l-16.191963 0c-2.2357101 0 -4.048111 -1.8124084 -4.048111 -4.048111z" fill-rule="evenodd"/></g></svg>